<?xml version="1.0" standalone="no"?><!DOCTYPE svg PUBLIC "-//W3C//DTD SVG 1.1//EN" "http://www.w3.org/Graphics/SVG/1.1/DTD/svg11.dtd"><svg t="1530975658906" class="icon" style="" viewBox="0 0 1024 1024" version="1.1" xmlns="http://www.w3.org/2000/svg" p-id="6813" xmlns:xlink="http://www.w3.org/1999/xlink" width="200" height="200"><defs><style type="text/css"></style></defs><path d="M335.1 183.6c33 0 60-27 60-60s-27-60-60-60-60 27-60 60c0 33.1 26.9 60 60 60z" fill="#5100A1" p-id="6814"></path><path d="M335.1 131.3m-60 0a60 60 0 1 0 120 0 60 60 0 1 0-120 0Z" fill="#5102A2" p-id="6815"></path><path d="M335.1 139m-60 0a60 60 0 1 0 120 0 60 60 0 1 0-120 0Z" fill="#5105A3" p-id="6816"></path><path d="M335.1 146.7m-60 0a60 60 0 1 0 120 0 60 60 0 1 0-120 0Z" fill="#5107A4" p-id="6817"></path><path d="M335.1 154.4m-60 0a60 60 0 1 0 120 0 60 60 0 1 0-120 0Z" fill="#510AA5" p-id="6818"></path><path d="M335.1 162.1m-60 0a60 60 0 1 0 120 0 60 60 0 1 0-120 0Z" fill="#510CA6" p-id="6819"></path><path d="M335.1 169.8m-60 0a60 60 0 1 0 120 0 60 60 0 1 0-120 0Z" fill="#510FA7" p-id="6820"></path><path d="M335.1 177.5m-60 0a60 60 0 1 0 120 0 60 60 0 1 0-120 0Z" fill="#5211A8" p-id="6821"></path><path d="M335.1 185.2m-60 0a60 60 0 1 0 120 0 60 60 0 1 0-120 0Z" fill="#5214A8" p-id="6822"></path><path d="M335.1 192.8m-60 0a60 60 0 1 0 120 0 60 60 0 1 0-120 0Z" fill="#5216A9" p-id="6823"></path><path d="M335.1 200.5m-60 0a60 60 0 1 0 120 0 60 60 0 1 0-120 0Z" fill="#5219AA" p-id="6824"></path><path d="M335.1 208.2m-60 0a60 60 0 1 0 120 0 60 60 0 1 0-120 0Z" fill="#521BAB" p-id="6825"></path><path d="M335.1 215.9m-60 0a60 60 0 1 0 120 0 60 60 0 1 0-120 0Z" fill="#521EAC" p-id="6826"></path><path d="M335.1 223.6m-60 0a60 60 0 1 0 120 0 60 60 0 1 0-120 0Z" fill="#5220AD" p-id="6827"></path><path d="M335.1 231.3m-60 0a60 60 0 1 0 120 0 60 60 0 1 0-120 0Z" fill="#5223AE" p-id="6828"></path><path d="M335.1 239m-60 0a60 60 0 1 0 120 0 60 60 0 1 0-120 0Z" fill="#5225AF" p-id="6829"></path><path d="M335.1 246.7m-60 0a60 60 0 1 0 120 0 60 60 0 1 0-120 0Z" fill="#5228B0" p-id="6830"></path><path d="M335.1 254.4m-60 0a60 60 0 1 0 120 0 60 60 0 1 0-120 0Z" fill="#522AB1" p-id="6831"></path><path d="M335.1 262.1m-60 0a60 60 0 1 0 120 0 60 60 0 1 0-120 0Z" fill="#522DB2" p-id="6832"></path><path d="M335.1 269.8m-60 0a60 60 0 1 0 120 0 60 60 0 1 0-120 0Z" fill="#532FB3" p-id="6833"></path><path d="M335.1 277.4m-60 0a60 60 0 1 0 120 0 60 60 0 1 0-120 0Z" fill="#5332B4" p-id="6834"></path><path d="M335.1 285.1m-60 0a60 60 0 1 0 120 0 60 60 0 1 0-120 0Z" fill="#5334B5" p-id="6835"></path><path d="M335.1 292.8m-60 0a60 60 0 1 0 120 0 60 60 0 1 0-120 0Z" fill="#5337B5" p-id="6836"></path><path d="M335.1 300.5m-60 0a60 60 0 1 0 120 0 60 60 0 1 0-120 0Z" fill="#5339B6" p-id="6837"></path><path d="M335.1 308.2m-60 0a60 60 0 1 0 120 0 60 60 0 1 0-120 0Z" fill="#533CB7" p-id="6838"></path><path d="M335.1 315.9m-60 0a60 60 0 1 0 120 0 60 60 0 1 0-120 0Z" fill="#533EB8" p-id="6839"></path><path d="M335.1 323.6m-60 0a60 60 0 1 0 120 0 60 60 0 1 0-120 0Z" fill="#5341B9" p-id="6840"></path><path d="M335.1 331.3m-60 0a60 60 0 1 0 120 0 60 60 0 1 0-120 0Z" fill="#5343BA" p-id="6841"></path><path d="M335.1 339m-60 0a60 60 0 1 0 120 0 60 60 0 1 0-120 0Z" fill="#5346BB" p-id="6842"></path><path d="M335.1 346.7m-60 0a60 60 0 1 0 120 0 60 60 0 1 0-120 0Z" fill="#5348BC" p-id="6843"></path><path d="M335.1 354.3m-60 0a60 60 0 1 0 120 0 60 60 0 1 0-120 0Z" fill="#534BBD" p-id="6844"></path><path d="M335.1 362m-60 0a60 60 0 1 0 120 0 60 60 0 1 0-120 0Z" fill="#534DBE" p-id="6845"></path><path d="M335.1 369.7m-60 0a60 60 0 1 0 120 0 60 60 0 1 0-120 0Z" fill="#5450BF" p-id="6846"></path><path d="M335.1 377.4m-60 0a60 60 0 1 0 120 0 60 60 0 1 0-120 0Z" fill="#5452C0" p-id="6847"></path><path d="M335.1 385.1m-60 0a60 60 0 1 0 120 0 60 60 0 1 0-120 0Z" fill="#5455C1" p-id="6848"></path><path d="M335.1 392.8m-60 0a60 60 0 1 0 120 0 60 60 0 1 0-120 0Z" fill="#5457C2" p-id="6849"></path><path d="M335.1 400.5m-60 0a60 60 0 1 0 120 0 60 60 0 1 0-120 0Z" fill="#545AC3" p-id="6850"></path><path d="M335.1 408.2m-60 0a60 60 0 1 0 120 0 60 60 0 1 0-120 0Z" fill="#545CC3" p-id="6851"></path><path d="M335.1 415.9m-60 0a60 60 0 1 0 120 0 60 60 0 1 0-120 0Z" fill="#545FC4" p-id="6852"></path><path d="M335.1 423.6m-60 0a60 60 0 1 0 120 0 60 60 0 1 0-120 0Z" fill="#5461C5" p-id="6853"></path><path d="M335.1 431.3m-60 0a60 60 0 1 0 120 0 60 60 0 1 0-120 0Z" fill="#5464C6" p-id="6854"></path><path d="M335.1 438.9m-60 0a60 60 0 1 0 120 0 60 60 0 1 0-120 0Z" fill="#5466C7" p-id="6855"></path><path d="M335.1 446.6m-60 0a60 60 0 1 0 120 0 60 60 0 1 0-120 0Z" fill="#5469C8" p-id="6856"></path><path d="M335.1 454.3m-60 0a60 60 0 1 0 120 0 60 60 0 1 0-120 0Z" fill="#546BC9" p-id="6857"></path><path d="M335.1 462m-60 0a60 60 0 1 0 120 0 60 60 0 1 0-120 0Z" fill="#546ECA" p-id="6858"></path><path d="M335.1 469.7m-60 0a60 60 0 1 0 120 0 60 60 0 1 0-120 0Z" fill="#5570CB" p-id="6859"></path><path d="M335.1 477.4m-60 0a60 60 0 1 0 120 0 60 60 0 1 0-120 0Z" fill="#5573CC" p-id="6860"></path><path d="M335.1 485.1m-60 0a60 60 0 1 0 120 0 60 60 0 1 0-120 0Z" fill="#5575CD" p-id="6861"></path><path d="M335.1 492.8m-60 0a60 60 0 1 0 120 0 60 60 0 1 0-120 0Z" fill="#5578CE" p-id="6862"></path><path d="M335.1 500.5m-60 0a60 60 0 1 0 120 0 60 60 0 1 0-120 0Z" fill="#557ACF" p-id="6863"></path><path d="M335.1 508.2m-60 0a60 60 0 1 0 120 0 60 60 0 1 0-120 0Z" fill="#557DD0" p-id="6864"></path><path d="M335.1 515.8m-60 0a60 60 0 1 0 120 0 60 60 0 1 0-120 0Z" fill="#557FD0" p-id="6865"></path><path d="M335.1 523.5m-60 0a60 60 0 1 0 120 0 60 60 0 1 0-120 0Z" fill="#5582D1" p-id="6866"></path><path d="M335.1 531.2m-60 0a60 60 0 1 0 120 0 60 60 0 1 0-120 0Z" fill="#5584D2" p-id="6867"></path><path d="M335.1 538.9m-60 0a60 60 0 1 0 120 0 60 60 0 1 0-120 0Z" fill="#5587D3" p-id="6868"></path><path d="M335.1 546.6m-60 0a60 60 0 1 0 120 0 60 60 0 1 0-120 0Z" fill="#5589D4" p-id="6869"></path><path d="M335.1 554.3m-60 0a60 60 0 1 0 120 0 60 60 0 1 0-120 0Z" fill="#558CD5" p-id="6870"></path><path d="M335.1 562m-60 0a60 60 0 1 0 120 0 60 60 0 1 0-120 0Z" fill="#568ED6" p-id="6871"></path><path d="M335.1 569.7m-60 0a60 60 0 1 0 120 0 60 60 0 1 0-120 0Z" fill="#5691D7" p-id="6872"></path><path d="M335.1 577.4m-60 0a60 60 0 1 0 120 0 60 60 0 1 0-120 0Z" fill="#5693D8" p-id="6873"></path><path d="M335.1 585.1m-60 0a60 60 0 1 0 120 0 60 60 0 1 0-120 0Z" fill="#5696D9" p-id="6874"></path><path d="M335.1 592.8m-60 0a60 60 0 1 0 120 0 60 60 0 1 0-120 0Z" fill="#5698DA" p-id="6875"></path><path d="M335.1 600.4m-60 0a60 60 0 1 0 120 0 60 60 0 1 0-120 0Z" fill="#569BDB" p-id="6876"></path><path d="M335.1 608.1m-60 0a60 60 0 1 0 120 0 60 60 0 1 0-120 0Z" fill="#569DDC" p-id="6877"></path><path d="M335.1 615.8m-60 0a60 60 0 1 0 120 0 60 60 0 1 0-120 0Z" fill="#56A0DD" p-id="6878"></path><path d="M335.1 623.5m-60 0a60 60 0 1 0 120 0 60 60 0 1 0-120 0Z" fill="#56A2DD" p-id="6879"></path><path d="M335.1 631.2m-60 0a60 60 0 1 0 120 0 60 60 0 1 0-120 0Z" fill="#56A5DE" p-id="6880"></path><path d="M335.1 638.9m-60 0a60 60 0 1 0 120 0 60 60 0 1 0-120 0Z" fill="#56A7DF" p-id="6881"></path><path d="M335.1 646.6m-60 0a60 60 0 1 0 120 0 60 60 0 1 0-120 0Z" fill="#56AAE0" p-id="6882"></path><path d="M335.1 654.3m-60 0a60 60 0 1 0 120 0 60 60 0 1 0-120 0Z" fill="#56ACE1" p-id="6883"></path><path d="M335.1 662m-60 0a60 60 0 1 0 120 0 60 60 0 1 0-120 0Z" fill="#57AFE2" p-id="6884"></path><path d="M335.1 669.7m-60 0a60 60 0 1 0 120 0 60 60 0 1 0-120 0Z" fill="#57B1E3" p-id="6885"></path><path d="M335.1 677.3m-60 0a60 60 0 1 0 120 0 60 60 0 1 0-120 0Z" fill="#57B4E4" p-id="6886"></path><path d="M335.1 685m-60 0a60 60 0 1 0 120 0 60 60 0 1 0-120 0Z" fill="#57B6E5" p-id="6887"></path><path d="M335.1 692.7m-60 0a60 60 0 1 0 120 0 60 60 0 1 0-120 0Z" fill="#57B9E6" p-id="6888"></path><path d="M335.1 700.4m-60 0a60 60 0 1 0 120 0 60 60 0 1 0-120 0Z" fill="#57BBE7" p-id="6889"></path><path d="M335.1 708.1m-60 0a60 60 0 1 0 120 0 60 60 0 1 0-120 0Z" fill="#57BEE8" p-id="6890"></path><path d="M335.1 715.8m-60 0a60 60 0 1 0 120 0 60 60 0 1 0-120 0Z" fill="#57C0E9" p-id="6891"></path><path d="M335.1 723.5m-60 0a60 60 0 1 0 120 0 60 60 0 1 0-120 0Z" fill="#57C3EA" p-id="6892"></path><path d="M335.1 731.2m-60 0a60 60 0 1 0 120 0 60 60 0 1 0-120 0Z" fill="#57C5EB" p-id="6893"></path><path d="M335.1 738.9m-60 0a60 60 0 1 0 120 0 60 60 0 1 0-120 0Z" fill="#57C8EB" p-id="6894"></path><path d="M335.1 746.6m-60 0a60 60 0 1 0 120 0 60 60 0 1 0-120 0Z" fill="#57CAEC" p-id="6895"></path><path d="M335.1 754.3m-60 0a60 60 0 1 0 120 0 60 60 0 1 0-120 0Z" fill="#57CDED" p-id="6896"></path><path d="M335.1 761.9m-60 0a60 60 0 1 0 120 0 60 60 0 1 0-120 0Z" fill="#58CFEE" p-id="6897"></path><path d="M335.1 769.6m-60 0a60 60 0 1 0 120 0 60 60 0 1 0-120 0Z" fill="#58D2EF" p-id="6898"></path><path d="M335.1 777.3m-60 0a60 60 0 1 0 120 0 60 60 0 1 0-120 0Z" fill="#58D4F0" p-id="6899"></path><path d="M335.1 785m-60 0a60 60 0 1 0 120 0 60 60 0 1 0-120 0Z" fill="#58D7F1" p-id="6900"></path><path d="M335.1 792.7m-60 0a60 60 0 1 0 120 0 60 60 0 1 0-120 0Z" fill="#58D9F2" p-id="6901"></path><path d="M335.1 800.4m-60 0a60 60 0 1 0 120 0 60 60 0 1 0-120 0Z" fill="#58DCF3" p-id="6902"></path><path d="M335.1 808.1m-60 0a60 60 0 1 0 120 0 60 60 0 1 0-120 0Z" fill="#58DEF4" p-id="6903"></path><path d="M335.1 815.8m-60 0a60 60 0 1 0 120 0 60 60 0 1 0-120 0Z" fill="#58E1F5" p-id="6904"></path><path d="M335.1 823.5m-60 0a60 60 0 1 0 120 0 60 60 0 1 0-120 0Z" fill="#58E3F6" p-id="6905"></path><path d="M335.1 831.2m-60 0a60 60 0 1 0 120 0 60 60 0 1 0-120 0Z" fill="#58E6F7" p-id="6906"></path><path d="M335.1 838.8m-60 0a60 60 0 1 0 120 0 60 60 0 1 0-120 0Z" fill="#58E8F8" p-id="6907"></path><path d="M335.1 846.5m-60 0a60 60 0 1 0 120 0 60 60 0 1 0-120 0Z" fill="#58EBF8" p-id="6908"></path><path d="M335.1 854.2m-60 0a60 60 0 1 0 120 0 60 60 0 1 0-120 0Z" fill="#59EDF9" p-id="6909"></path><path d="M335.1 861.9m-60 0a60 60 0 1 0 120 0 60 60 0 1 0-120 0Z" fill="#59F0FA" p-id="6910"></path><path d="M335.1 869.6m-60 0a60 60 0 1 0 120 0 60 60 0 1 0-120 0Z" fill="#59F2FB" p-id="6911"></path><path d="M335.1 877.3m-60 0a60 60 0 1 0 120 0 60 60 0 1 0-120 0Z" fill="#59F5FC" p-id="6912"></path><path d="M335.1 885m-60 0a60 60 0 1 0 120 0 60 60 0 1 0-120 0Z" fill="#59F7FD" p-id="6913"></path><path d="M335.1 892.7m-60 0a60 60 0 1 0 120 0 60 60 0 1 0-120 0Z" fill="#59FAFE" p-id="6914"></path><path d="M335.1 960.4c33 0 60-27 60-60s-27-60-60-60-60 27-60 60 26.9 60 60 60z" fill="#59FCFF" p-id="6915"></path><path d="M338.6 900.4m-60 0a60 60 0 1 0 120 0 60 60 0 1 0-120 0Z" fill="#59FAFF" p-id="6916"></path><path d="M342.1 900.4m-60 0a60 60 0 1 0 120 0 60 60 0 1 0-120 0Z" fill="#5AF8FF" p-id="6917"></path><path d="M345.6 900.4m-60 0a60 60 0 1 0 120 0 60 60 0 1 0-120 0Z" fill="#5AF7FF" p-id="6918"></path><path d="M349.1 900.4m-60 0a60 60 0 1 0 120 0 60 60 0 1 0-120 0Z" fill="#5BF5FF" p-id="6919"></path><path d="M352.6 900.4m-60 0a60 60 0 1 0 120 0 60 60 0 1 0-120 0Z" fill="#5BF3FF" p-id="6920"></path><path d="M356.1 900.4m-60 0a60 60 0 1 0 120 0 60 60 0 1 0-120 0Z" fill="#5CF1FF" p-id="6921"></path><path d="M359.6 900.4m-60 0a60 60 0 1 0 120 0 60 60 0 1 0-120 0Z" fill="#5CEFFF" p-id="6922"></path><path d="M363.1 900.4m-60 0a60 60 0 1 0 120 0 60 60 0 1 0-120 0Z" fill="#5DEEFF" p-id="6923"></path><path d="M366.6 900.4m-60 0a60 60 0 1 0 120 0 60 60 0 1 0-120 0Z" fill="#5DECFF" p-id="6924"></path><path d="M370.1 900.4m-60 0a60 60 0 1 0 120 0 60 60 0 1 0-120 0Z" fill="#5EEAFF" p-id="6925"></path><path d="M373.6 900.4m-60 0a60 60 0 1 0 120 0 60 60 0 1 0-120 0Z" fill="#5EE8FF" p-id="6926"></path><path d="M377.1 900.4m-60 0a60 60 0 1 0 120 0 60 60 0 1 0-120 0Z" fill="#5EE6FF" p-id="6927"></path><path d="M380.6 900.4m-60 0a60 60 0 1 0 120 0 60 60 0 1 0-120 0Z" fill="#5FE5FF" p-id="6928"></path><path d="M384.1 900.4m-60 0a60 60 0 1 0 120 0 60 60 0 1 0-120 0Z" fill="#5FE3FF" p-id="6929"></path><path d="M387.6 900.4m-60 0a60 60 0 1 0 120 0 60 60 0 1 0-120 0Z" fill="#60E1FF" p-id="6930"></path><path d="M391.1 900.4m-60 0a60 60 0 1 0 120 0 60 60 0 1 0-120 0Z" fill="#60DFFF" p-id="6931"></path><path d="M394.6 900.4m-60 0a60 60 0 1 0 120 0 60 60 0 1 0-120 0Z" fill="#61DEFF" p-id="6932"></path><path d="M398.1 900.4m-60 0a60 60 0 1 0 120 0 60 60 0 1 0-120 0Z" fill="#61DCFF" p-id="6933"></path><path d="M401.6 900.4m-60 0a60 60 0 1 0 120 0 60 60 0 1 0-120 0Z" fill="#62DAFF" p-id="6934"></path><path d="M405.2 900.4m-60 0a60 60 0 1 0 120 0 60 60 0 1 0-120 0Z" fill="#62D8FF" p-id="6935"></path><path d="M408.7 900.4m-60 0a60 60 0 1 0 120 0 60 60 0 1 0-120 0Z" fill="#63D6FF" p-id="6936"></path><path d="M412.2 900.4m-60 0a60 60 0 1 0 120 0 60 60 0 1 0-120 0Z" fill="#63D5FF" p-id="6937"></path><path d="M415.7 900.4m-60 0a60 60 0 1 0 120 0 60 60 0 1 0-120 0Z" fill="#63D3FF" p-id="6938"></path><path d="M419.2 900.4m-60 0a60 60 0 1 0 120 0 60 60 0 1 0-120 0Z" fill="#64D1FF" p-id="6939"></path><path d="M422.7 900.4m-60 0a60 60 0 1 0 120 0 60 60 0 1 0-120 0Z" fill="#64CFFF" p-id="6940"></path><path d="M426.2 900.4m-60 0a60 60 0 1 0 120 0 60 60 0 1 0-120 0Z" fill="#65CDFF" p-id="6941"></path><path d="M429.7 900.4m-60 0a60 60 0 1 0 120 0 60 60 0 1 0-120 0Z" fill="#65CCFF" p-id="6942"></path><path d="M433.2 900.4m-60 0a60 60 0 1 0 120 0 60 60 0 1 0-120 0Z" fill="#66CAFF" p-id="6943"></path><path d="M436.7 900.4m-60 0a60 60 0 1 0 120 0 60 60 0 1 0-120 0Z" fill="#66C8FF" p-id="6944"></path><path d="M440.2 900.4m-60 0a60 60 0 1 0 120 0 60 60 0 1 0-120 0Z" fill="#67C6FF" p-id="6945"></path><path d="M443.7 900.4m-60 0a60 60 0 1 0 120 0 60 60 0 1 0-120 0Z" fill="#67C4FF" p-id="6946"></path><path d="M447.2 900.4m-60 0a60 60 0 1 0 120 0 60 60 0 1 0-120 0Z" fill="#68C3FF" p-id="6947"></path><path d="M450.7 900.4m-60 0a60 60 0 1 0 120 0 60 60 0 1 0-120 0Z" fill="#68C1FF" p-id="6948"></path><path d="M454.2 900.4m-60 0a60 60 0 1 0 120 0 60 60 0 1 0-120 0Z" fill="#68BFFF" p-id="6949"></path><path d="M457.7 900.4m-60 0a60 60 0 1 0 120 0 60 60 0 1 0-120 0Z" fill="#69BDFF" p-id="6950"></path><path d="M461.2 900.4m-60 0a60 60 0 1 0 120 0 60 60 0 1 0-120 0Z" fill="#69BBFF" p-id="6951"></path><path d="M464.7 900.4m-60 0a60 60 0 1 0 120 0 60 60 0 1 0-120 0Z" fill="#6ABAFF" p-id="6952"></path><path d="M468.2 900.4m-60 0a60 60 0 1 0 120 0 60 60 0 1 0-120 0Z" fill="#6AB8FF" p-id="6953"></path><path d="M471.7 900.4m-60 0a60 60 0 1 0 120 0 60 60 0 1 0-120 0Z" fill="#6BB6FF" p-id="6954"></path><path d="M475.2 900.4m-60 0a60 60 0 1 0 120 0 60 60 0 1 0-120 0Z" fill="#6BB4FF" p-id="6955"></path><path d="M478.7 900.4m-60 0a60 60 0 1 0 120 0 60 60 0 1 0-120 0Z" fill="#6CB3FF" p-id="6956"></path><path d="M482.2 900.4m-60 0a60 60 0 1 0 120 0 60 60 0 1 0-120 0Z" fill="#6CB1FF" p-id="6957"></path><path d="M485.7 900.4m-60 0a60 60 0 1 0 120 0 60 60 0 1 0-120 0Z" fill="#6DAFFF" p-id="6958"></path><path d="M489.2 900.4m-60 0a60 60 0 1 0 120 0 60 60 0 1 0-120 0Z" fill="#6DADFF" p-id="6959"></path><path d="M492.7 900.4m-60 0a60 60 0 1 0 120 0 60 60 0 1 0-120 0Z" fill="#6DABFF" p-id="6960"></path><path d="M496.2 900.4m-60 0a60 60 0 1 0 120 0 60 60 0 1 0-120 0Z" fill="#6EAAFF" p-id="6961"></path><path d="M499.7 900.4m-60 0a60 60 0 1 0 120 0 60 60 0 1 0-120 0Z" fill="#6EA8FF" p-id="6962"></path><path d="M503.2 900.4m-60 0a60 60 0 1 0 120 0 60 60 0 1 0-120 0Z" fill="#6FA6FF" p-id="6963"></path><path d="M506.7 900.4m-60 0a60 60 0 1 0 120 0 60 60 0 1 0-120 0Z" fill="#6FA4FF" p-id="6964"></path><path d="M510.2 900.4m-60 0a60 60 0 1 0 120 0 60 60 0 1 0-120 0Z" fill="#70A2FF" p-id="6965"></path><path d="M513.8 900.4m-60 0a60 60 0 1 0 120 0 60 60 0 1 0-120 0Z" fill="#70A1FF" p-id="6966"></path><path d="M517.3 900.4m-60 0a60 60 0 1 0 120 0 60 60 0 1 0-120 0Z" fill="#719FFF" p-id="6967"></path><path d="M520.8 900.4m-60 0a60 60 0 1 0 120 0 60 60 0 1 0-120 0Z" fill="#719DFF" p-id="6968"></path><path d="M524.3 900.4m-60 0a60 60 0 1 0 120 0 60 60 0 1 0-120 0Z" fill="#729BFF" p-id="6969"></path><path d="M527.8 900.4m-60 0a60 60 0 1 0 120 0 60 60 0 1 0-120 0Z" fill="#7299FF" p-id="6970"></path><path d="M531.3 900.4m-60 0a60 60 0 1 0 120 0 60 60 0 1 0-120 0Z" fill="#7398FF" p-id="6971"></path><path d="M534.8 900.4m-60 0a60 60 0 1 0 120 0 60 60 0 1 0-120 0Z" fill="#7396FF" p-id="6972"></path><path d="M538.3 900.4m-60 0a60 60 0 1 0 120 0 60 60 0 1 0-120 0Z" fill="#7394FF" p-id="6973"></path><path d="M541.8 900.4m-60 0a60 60 0 1 0 120 0 60 60 0 1 0-120 0Z" fill="#7492FF" p-id="6974"></path><path d="M545.3 900.4m-60 0a60 60 0 1 0 120 0 60 60 0 1 0-120 0Z" fill="#7490FF" p-id="6975"></path><path d="M548.8 900.4m-60 0a60 60 0 1 0 120 0 60 60 0 1 0-120 0Z" fill="#758FFF" p-id="6976"></path><path d="M552.3 900.4m-60 0a60 60 0 1 0 120 0 60 60 0 1 0-120 0Z" fill="#758DFF" p-id="6977"></path><path d="M555.8 900.4m-60 0a60 60 0 1 0 120 0 60 60 0 1 0-120 0Z" fill="#768BFF" p-id="6978"></path><path d="M559.3 900.4m-60 0a60 60 0 1 0 120 0 60 60 0 1 0-120 0Z" fill="#7689FF" p-id="6979"></path><path d="M562.8 900.4m-60 0a60 60 0 1 0 120 0 60 60 0 1 0-120 0Z" fill="#7788FF" p-id="6980"></path><path d="M566.3 900.4m-60 0a60 60 0 1 0 120 0 60 60 0 1 0-120 0Z" fill="#7786FF" p-id="6981"></path><path d="M569.8 900.4m-60 0a60 60 0 1 0 120 0 60 60 0 1 0-120 0Z" fill="#7884FF" p-id="6982"></path><path d="M573.3 900.4m-60 0a60 60 0 1 0 120 0 60 60 0 1 0-120 0Z" fill="#7882FF" p-id="6983"></path><path d="M576.8 900.4m-60 0a60 60 0 1 0 120 0 60 60 0 1 0-120 0Z" fill="#7880FF" p-id="6984"></path><path d="M580.3 900.4m-60 0a60 60 0 1 0 120 0 60 60 0 1 0-120 0Z" fill="#797FFF" p-id="6985"></path><path d="M583.8 900.4m-60 0a60 60 0 1 0 120 0 60 60 0 1 0-120 0Z" fill="#797DFF" p-id="6986"></path><path d="M587.3 900.4m-60 0a60 60 0 1 0 120 0 60 60 0 1 0-120 0Z" fill="#7A7BFF" p-id="6987"></path><path d="M590.8 900.4m-60 0a60 60 0 1 0 120 0 60 60 0 1 0-120 0Z" fill="#7A79FF" p-id="6988"></path><path d="M594.3 900.4m-60 0a60 60 0 1 0 120 0 60 60 0 1 0-120 0Z" fill="#7B77FF" p-id="6989"></path><path d="M597.8 900.4m-60 0a60 60 0 1 0 120 0 60 60 0 1 0-120 0Z" fill="#7B76FF" p-id="6990"></path><path d="M601.3 900.4m-60 0a60 60 0 1 0 120 0 60 60 0 1 0-120 0Z" fill="#7C74FF" p-id="6991"></path><path d="M604.8 900.4m-60 0a60 60 0 1 0 120 0 60 60 0 1 0-120 0Z" fill="#7C72FF" p-id="6992"></path><path d="M608.3 900.4m-60 0a60 60 0 1 0 120 0 60 60 0 1 0-120 0Z" fill="#7D70FF" p-id="6993"></path><path d="M611.8 900.4m-60 0a60 60 0 1 0 120 0 60 60 0 1 0-120 0Z" fill="#7D6EFF" p-id="6994"></path><path d="M615.3 900.4m-60 0a60 60 0 1 0 120 0 60 60 0 1 0-120 0Z" fill="#7D6DFF" p-id="6995"></path><path d="M618.9 900.4m-60 0a60 60 0 1 0 120 0 60 60 0 1 0-120 0Z" fill="#7E6BFF" p-id="6996"></path><path d="M622.4 900.4m-60 0a60 60 0 1 0 120 0 60 60 0 1 0-120 0Z" fill="#7E69FF" p-id="6997"></path><path d="M625.9 900.4m-60 0a60 60 0 1 0 120 0 60 60 0 1 0-120 0Z" fill="#7F67FF" p-id="6998"></path><path d="M629.4 900.4m-60 0a60 60 0 1 0 120 0 60 60 0 1 0-120 0Z" fill="#7F65FF" p-id="6999"></path><path d="M632.9 900.4m-60 0a60 60 0 1 0 120 0 60 60 0 1 0-120 0Z" fill="#8064FF" p-id="7000"></path><path d="M636.4 900.4m-60 0a60 60 0 1 0 120 0 60 60 0 1 0-120 0Z" fill="#8062FF" p-id="7001"></path><path d="M639.9 900.4m-60 0a60 60 0 1 0 120 0 60 60 0 1 0-120 0Z" fill="#8160FF" p-id="7002"></path><path d="M643.4 900.4m-60 0a60 60 0 1 0 120 0 60 60 0 1 0-120 0Z" fill="#815EFF" p-id="7003"></path><path d="M646.9 900.4m-60 0a60 60 0 1 0 120 0 60 60 0 1 0-120 0Z" fill="#825DFF" p-id="7004"></path><path d="M650.4 900.4m-60 0a60 60 0 1 0 120 0 60 60 0 1 0-120 0Z" fill="#825BFF" p-id="7005"></path><path d="M653.9 900.4m-60 0a60 60 0 1 0 120 0 60 60 0 1 0-120 0Z" fill="#8259FF" p-id="7006"></path><path d="M657.4 900.4m-60 0a60 60 0 1 0 120 0 60 60 0 1 0-120 0Z" fill="#8357FF" p-id="7007"></path><path d="M660.9 900.4m-60 0a60 60 0 1 0 120 0 60 60 0 1 0-120 0Z" fill="#8355FF" p-id="7008"></path><path d="M664.4 900.4m-60 0a60 60 0 1 0 120 0 60 60 0 1 0-120 0Z" fill="#8454FF" p-id="7009"></path><path d="M667.9 900.4m-60 0a60 60 0 1 0 120 0 60 60 0 1 0-120 0Z" fill="#8452FF" p-id="7010"></path><path d="M671.4 900.4m-60 0a60 60 0 1 0 120 0 60 60 0 1 0-120 0Z" fill="#8550FF" p-id="7011"></path><path d="M674.9 900.4m-60 0a60 60 0 1 0 120 0 60 60 0 1 0-120 0Z" fill="#854EFF" p-id="7012"></path><path d="M678.4 900.4m-60 0a60 60 0 1 0 120 0 60 60 0 1 0-120 0Z" fill="#864CFF" p-id="7013"></path><path d="M681.9 900.4m-60 0a60 60 0 1 0 120 0 60 60 0 1 0-120 0Z" fill="#864BFF" p-id="7014"></path><path d="M685.4 900.4m-60 0a60 60 0 1 0 120 0 60 60 0 1 0-120 0Z" fill="#8749FF" p-id="7015"></path><path d="M688.9 960.4c33 0 60-27 60-60s-27-60-60-60-60 27-60 60 27 60 60 60z" fill="#8747FF" p-id="7016"></path></svg>