<?xml version="1.0" standalone="no"?>
<!DOCTYPE svg PUBLIC "-//W3C//DTD SVG 20010904//EN"
 "http://www.w3.org/TR/2001/REC-SVG-20010904/DTD/svg10.dtd">
<svg version="1.0" xmlns="http://www.w3.org/2000/svg"
 width="700.000000pt" height="700.000000pt" viewBox="0 0 700.000000 700.000000"
 preserveAspectRatio="xMidYMid meet">
<metadata>
Created by potrace 1.11, written by Peter Selinger 2001-2013
</metadata>
<g transform="translate(0.000000,700.000000) scale(0.100000,-0.100000)"
fill="#000000" stroke="none">
<path d="M3475 6593 c-16 -3 -34 -8 -40 -13 -5 -4 -21 -10 -35 -13 -29 -7 -89
-60 -113 -99 -46 -74 -45 -26 -45 -2178 0 -1118 -2 -2033 -4 -2035 -2 -1 -28
9 -58 24 -68 33 -203 76 -305 96 -185 37 -470 39 -630 5 -22 -5 -54 -11 -72
-15 -117 -20 -345 -118 -471 -202 -93 -61 -242 -202 -289 -273 -68 -102 -124
-223 -139 -300 -3 -14 -9 -41 -13 -61 -13 -60 -6 -238 13 -314 81 -324 371
-602 763 -733 50 -17 127 -38 170 -46 43 -9 92 -18 108 -22 53 -10 368 -13
430 -4 283 44 461 110 665 245 89 59 223 191 280 276 71 104 106 189 148 364
4 17 8 931 7 2033 0 1865 1 2002 17 2002 22 0 182 -57 233 -83 128 -64 222
-150 345 -313 41 -54 88 -112 105 -127 29 -27 77 -57 92 -58 5 0 13 -4 18 -9
6 -4 64 -18 130 -30 295 -52 485 -137 608 -270 47 -51 69 -85 107 -175 12 -27
28 -91 35 -140 3 -22 8 -51 10 -65 3 -14 7 -39 10 -56 9 -56 34 -103 65 -119
16 -8 34 -15 39 -15 12 0 67 102 93 175 51 140 66 284 42 401 -16 74 -59 192
-79 214 -8 9 -15 20 -15 24 0 13 -83 121 -134 174 -95 99 -261 227 -406 311
-276 161 -452 312 -982 842 -192 191 -348 353 -348 359 0 6 -5 8 -12 4 -7 -4
-8 -3 -4 5 16 25 -96 166 -156 197 -29 15 -131 25 -183 17z"/>
</g>
</svg>
