<?xml version="1.0" standalone="no"?>
<!DOCTYPE svg PUBLIC "-//W3C//DTD SVG 20010904//EN"
 "http://www.w3.org/TR/2001/REC-SVG-20010904/DTD/svg10.dtd">
<svg version="1.0" xmlns="http://www.w3.org/2000/svg"
 width="700.000000pt" height="700.000000pt" viewBox="0 0 700.000000 700.000000"
 preserveAspectRatio="xMidYMid meet">
<metadata>
Created by potrace 1.11, written by Peter Selinger 2001-2013
</metadata>
<g transform="translate(0.000000,700.000000) scale(0.100000,-0.100000)"
fill="#000000" stroke="none">
<path d="M1963 6559 c-77 -10 -175 -60 -233 -119 -77 -79 -117 -172 -118 -278
-1 -189 106 -334 298 -403 27 -10 293 -13 1200 -15 641 -1 1169 -3 1174 -3 5
-1 -9 -13 -30 -27 -110 -73 -176 -200 -176 -338 0 -71 -1 -73 -23 -68 -22 4
-24 1 -22 -34 2 -35 -1 -39 -20 -38 -20 0 -23 -4 -23 -38 0 -33 -3 -38 -24
-38 -21 0 -23 -3 -19 -35 4 -32 3 -35 -22 -35 -25 0 -27 -3 -23 -35 4 -34 -12
-53 -33 -39 -10 6 -12 -6 -9 -49 1 -19 -3 -28 -12 -26 -30 4 -36 -2 -32 -36 3
-32 1 -35 -23 -35 -23 0 -25 -3 -21 -35 3 -30 1 -34 -21 -37 -21 -3 -25 -8
-26 -38 0 -28 -4 -35 -20 -35 -16 0 -20 -7 -20 -35 0 -30 -4 -35 -25 -38 -23
-3 -25 -7 -22 -37 4 -32 2 -35 -21 -35 -23 0 -25 -3 -21 -35 4 -35 -1 -40 -35
-35 -11 1 -13 -8 -8 -39 3 -22 2 -40 -1 -39 -39 5 -48 -3 -44 -37 4 -32 2 -35
-23 -35 -24 0 -26 -2 -21 -35 5 -32 4 -35 -18 -35 -21 0 -25 -5 -28 -37 -2
-21 -9 -39 -15 -39 -7 -1 -17 -2 -22 -3 -6 0 -7 -17 -4 -36 5 -33 4 -35 -21
-35 -24 0 -26 -3 -23 -35 4 -31 2 -35 -19 -35 -13 0 -24 -6 -25 -12 -1 -7 -2
-24 -2 -38 -2 -19 -7 -25 -24 -24 -19 1 -21 -4 -20 -35 2 -30 -1 -36 -18 -36
-14 0 -20 -7 -22 -25 0 -14 -1 -31 -2 -37 -1 -7 -12 -13 -25 -13 -21 0 -23 -3
-19 -35 5 -35 -1 -40 -35 -36 -10 2 -13 -8 -10 -36 2 -28 -1 -38 -12 -39 -8
-1 -20 -2 -25 -3 -6 -1 -9 -16 -7 -36 4 -32 2 -35 -22 -35 -24 0 -25 -3 -20
-35 5 -33 3 -35 -21 -35 -23 0 -26 -4 -25 -27 3 -45 1 -53 -14 -47 -19 7 -31
-15 -27 -49 1 -15 -1 -27 -6 -26 -36 6 -45 -2 -40 -36 4 -32 3 -35 -20 -35
-23 0 -25 -3 -21 -35 4 -31 1 -35 -19 -35 -23 0 -27 -7 -25 -47 1 -22 -22 -38
-40 -27 -7 4 -8 -8 -5 -35 4 -34 2 -42 -12 -40 -33 3 -37 -1 -33 -36 4 -32 2
-35 -23 -35 -26 0 -27 -2 -21 -35 7 -35 2 -40 -31 -36 -9 1 -13 -12 -13 -39 0
-27 -4 -40 -12 -39 -31 4 -36 -2 -31 -36 4 -32 3 -35 -21 -35 -24 0 -26 -3
-23 -35 4 -31 2 -35 -19 -35 -21 0 -24 -5 -24 -39 0 -34 -3 -38 -22 -37 -20 1
-23 -3 -21 -38 1 -36 0 -38 -24 -33 -24 4 -25 3 -21 -34 3 -36 2 -39 -22 -39
-24 0 -26 -3 -23 -39 3 -35 1 -38 -21 -36 -22 3 -24 0 -23 -33 1 -23 -3 -37
-10 -38 -7 -1 -17 -2 -23 -3 -5 0 -10 -17 -10 -36 0 -19 -3 -34 -7 -34 -36 6
-44 -2 -37 -36 6 -33 5 -35 -21 -35 -25 0 -27 -3 -23 -35 2 -19 0 -36 -4 -36
-4 -1 -12 -3 -18 -4 -5 -1 -14 -3 -19 -4 -6 0 -7 -17 -4 -37 4 -27 3 -35 -8
-34 -35 5 -40 0 -35 -35 5 -32 4 -35 -20 -35 -24 0 -26 -3 -22 -35 4 -35 0
-39 -33 -36 -14 2 -16 -6 -12 -40 3 -27 2 -39 -5 -35 -22 13 -42 -6 -39 -38 2
-25 -2 -32 -20 -34 -17 -3 -23 -11 -25 -40 -3 -32 -6 -37 -26 -34 -22 3 -23 1
-16 -32 6 -36 1 -41 -34 -37 -10 2 -13 -8 -11 -33 2 -20 1 -35 -1 -34 -3 1
-14 -4 -26 -10 -16 -8 -20 -18 -16 -41 4 -28 2 -31 -23 -31 -26 0 -27 -2 -22
-35 5 -32 4 -35 -19 -35 -21 0 -24 -4 -24 -40 0 -38 -2 -40 -25 -36 -24 4 -25
3 -19 -35 6 -37 5 -39 -20 -39 -23 0 -26 -4 -26 -34 0 -28 -4 -35 -22 -38 -18
-2 -22 -10 -23 -38 0 -28 -4 -35 -20 -35 -16 0 -20 -7 -20 -35 0 -28 -4 -35
-20 -35 -16 0 -21 -8 -23 -37 -3 -32 -7 -38 -26 -38 -21 0 -23 -4 -19 -40 3
-23 1 -40 -5 -40 -15 0 -6 -140 12 -203 37 -127 135 -226 271 -272 46 -16 173
-17 1770 -18 1337 0 1730 3 1765 13 138 38 238 133 291 275 17 48 20 159 4
218 -20 78 -51 132 -107 188 -82 82 -169 119 -285 120 -117 1 -208 -36 -291
-119 -63 -64 -98 -129 -114 -216 l-13 -66 -1252 0 c-1205 0 -1252 1 -1245 18
4 10 89 155 190 323 101 167 248 412 328 544 79 132 148 247 153 255 14 22
404 668 416 688 16 28 166 276 176 292 5 8 53 88 107 177 268 448 1112 1849
1192 1978 259 422 452 755 469 811 20 63 30 198 17 212 -4 4 -649 8 -1434 10
-784 1 -1427 4 -1429 6 -2 2 -6 21 -8 42 -28 222 -239 383 -462 353z"/>
</g>
</svg>
